<svg xmlns="http://www.w3.org/2000/svg" width="64" height="64" viewBox="0 0 64 64" role="img" aria-label="FirstStepReading app icon">
  <defs>
    <linearGradient id="bg" x1="0" y1="0" x2="64" y2="64" gradientUnits="userSpaceOnUse">
      <stop offset="0" stop-color="#39b7ff"/>
      <stop offset="1" stop-color="#2bd17e"/>
    </linearGradient>
  </defs>
  <rect width="64" height="64" rx="15" fill="url(#bg)"/>
  <!-- open book: left page -->
  <path d="M32 20.5C26.4 17.4 18.8 17.2 14 18.9 13.2 19.2 12.5 19.9 12.5 20.8L12.5 42.4C12.5 43.6 13.6 44.5 14.8 44.2 19.3 43.2 26 43.5 32 46.3Z" fill="#ffffff"/>
  <!-- open book: right page -->
  <path d="M32 20.5C37.6 17.4 45.2 17.2 50 18.9 50.8 19.2 51.5 19.9 51.5 20.8L51.5 42.4C51.5 43.6 50.4 44.5 49.2 44.2 44.7 43.2 38 43.5 32 46.3Z" fill="#eaf7ff"/>
  <!-- text lines -->
  <g fill="none" stroke="#9bd4ff" stroke-width="1.7" stroke-linecap="round">
    <path d="M18.5 27.5H27"/>
    <path d="M18.5 32H27"/>
    <path d="M18.5 36.5H25.5"/>
  </g>
  <g fill="none" stroke="#84c9f2" stroke-width="1.7" stroke-linecap="round">
    <path d="M37 27.5H45.5"/>
    <path d="M37 32H45.5"/>
    <path d="M38.5 36.5H45.5"/>
  </g>
  <!-- learning sparkle -->
  <path d="M47 12 49 16 53 18 49 20 47 24 45 20 41 18 45 16Z" fill="#fff1a8"/>
</svg>
